<?xml version="1.0" encoding="utf-8"?>
<!-- Generator: Adobe Illustrator 21.1.0, SVG Export Plug-In . SVG Version: 6.00 Build 0)  -->
<svg version="1.1" id="图层_1" xmlns="http://www.w3.org/2000/svg" xmlns:xlink="http://www.w3.org/1999/xlink" x="0px" y="0px"
	 viewBox="0 0 129.8 50" style="enable-background:new 0 0 129.8 50;" xml:space="preserve">
<style type="text/css">
	.st0{fill:#FFFFFF;}
</style>
<g>
	<path class="st0" d="M82.8,30.2h-1.6l-5.8-8.9c-0.1-0.2-0.3-0.5-0.4-0.7l0,0c0,0.2,0.1,0.8,0.1,1.5v8.1h-1.3V19h1.7l5.6,8.8
		c0.2,0.4,0.4,0.6,0.5,0.8l0,0c-0.1-0.3-0.1-0.9-0.1-1.6v-7.9h1.3C82.8,19.1,82.8,30.2,82.8,30.2z"/>
	<path class="st0" d="M94.3,30.4c-1.6,0-2.9-0.5-3.8-1.6s-1.4-2.4-1.4-4.1c0-1.8,0.5-3.2,1.5-4.3s2.3-1.6,4-1.6
		c1.5,0,2.8,0.5,3.7,1.6c0.9,1,1.4,2.4,1.4,4.1c0,1.8-0.5,3.3-1.5,4.3S95.9,30.4,94.3,30.4z M94.3,20c-1.2,0-2.1,0.4-2.9,1.3
		c-0.7,0.8-1.1,2-1.1,3.3c0,1.4,0.4,2.5,1.1,3.3s1.6,1.3,2.8,1.3c1.2,0,2.2-0.4,2.9-1.2c0.7-0.8,1.1-1.9,1.1-3.4s-0.3-2.6-1-3.4
		C96.5,20.4,95.6,20,94.3,20z"/>
	<path class="st0" d="M113.7,19l-4.1,11.2h-1.4L104.1,19h1.5l3.1,8.9c0.1,0.3,0.2,0.6,0.2,1l0,0c0-0.3,0.1-0.6,0.3-1l3.2-8.9H113.7z
		"/>
	<path class="st0" d="M127.1,30.2h-1.5l-1.2-3.1h-4.8l-1.1,3.1H117l4.3-11.2h1.4L127.1,30.2z M124,25.9l-1.8-4.8
		c-0.1-0.2-0.1-0.4-0.2-0.8l0,0c-0.1,0.3-0.1,0.6-0.2,0.8l-1.7,4.8C120.1,25.9,124,25.9,124,25.9z"/>
</g>
<g id="LINE_43_">
	<g id="XMLID_35_">
		<g id="XMLID_38_">
			<path class="st0" d="M62.5,23.7c0.7,0.7,0.7,1.9-0.1,2.6L48.1,39.7v-1l13.4-13.6c0.1-0.1,0.1-0.4,0-0.5l0,0L46,12.6
				c-0.2-0.1-0.4-0.1-0.5,0.1c-0.1,0.1-0.1,0.1-0.1,0.2v27.5c0,0.2-0.2,0.4-0.4,0.4h-3.2c-0.1,0-0.2-0.1-0.3-0.2L23.9,13.8
				l-0.7,26.7c0,0.2-0.2,0.4-0.4,0.4h-1.5c-0.1,0-0.2,0-0.2-0.1L4,26.3c-0.1,0-0.1-0.1-0.2-0.1c-0.7-0.7-0.7-1.9,0.1-2.6l13.2-12.4
				v1L5,24.7c-0.1,0.1-0.1,0.4,0,0.5l0,0l15.5,12c0.2,0.1,0.4,0.1,0.5-0.1c0.1-0.1,0.1-0.1,0.1-0.2V9.4c0-0.2,0.2-0.4,0.4-0.4h3.2
				c0.1,0,0.2,0.1,0.3,0.2l17.5,26.9l0.7-26.7c0-0.2,0.2-0.4,0.4-0.4h1.5c0.1,0,0.2,0,0.2,0.1l17,14.4
				C62.4,23.6,62.5,23.6,62.5,23.7z"/>
		</g>
		<g id="XMLID_39_">
		</g>
	</g>
</g>
</svg>
