<?xml version="1.0" encoding="utf-8"?>
<!-- Generator: Adobe Illustrator 21.1.0, SVG Export Plug-In . SVG Version: 6.00 Build 0)  -->
<svg version="1.1" id="图层_1" xmlns="http://www.w3.org/2000/svg" xmlns:xlink="http://www.w3.org/1999/xlink" x="0px" y="0px"
	 viewBox="0 0 47.1 50" style="enable-background:new 0 0 47.1 50;" xml:space="preserve">
<style type="text/css">
	.st0{fill:#FFFFFF;}
</style>
<g id="LINE_43_">
	<g id="XMLID_35_">
		<g id="XMLID_38_">
			<path class="st0" d="M46.1,24c0.5,0.5,0.5,1.5-0.1,2L35,36.3v-0.8L45.3,25c0.1-0.1,0.1-0.3,0-0.4l0,0l-11.9-9.2
				c-0.2-0.1-0.3-0.1-0.4,0.1c-0.1,0.1-0.1,0.1-0.1,0.2v21.1c0,0.2-0.2,0.3-0.3,0.3h-2.5c-0.1,0-0.2-0.1-0.2-0.2L16.4,16.4L15.9,37
				c0,0.2-0.2,0.3-0.3,0.3h-1.2c-0.1,0-0.2,0-0.2-0.1L1.1,26C1,26,1,25.9,0.9,25.9c-0.5-0.5-0.5-1.5,0.1-2l10.2-9.5v0.8l-9.3,9.6
				c-0.1,0.1-0.1,0.3,0,0.4l0,0l11.9,9.2c0.2,0.1,0.3,0.1,0.4-0.1c0.1-0.1,0.1-0.1,0.1-0.2V13c0-0.2,0.2-0.3,0.3-0.3h2.5
				c0.1,0,0.2,0.1,0.2,0.2l13.5,20.7L31.2,13c0-0.2,0.2-0.3,0.3-0.3h1.2c0.1,0,0.2,0,0.2,0.1L46.1,24C46,24,46.1,24,46.1,24z"/>
		</g>
		<g id="XMLID_39_">
		</g>
	</g>
</g>
</svg>
