<?xml version="1.0" standalone="no"?><!DOCTYPE svg PUBLIC "-//W3C//DTD SVG 1.1//EN" "http://www.w3.org/Graphics/SVG/1.1/DTD/svg11.dtd"><svg class="icon" width="16px" height="16.00px" viewBox="0 0 1024 1024" version="1.1" xmlns="http://www.w3.org/2000/svg"><path d="M800.249383 540.364084c0.682905-1.318784 1.784959-2.420838 2.38199-3.782559 11.689129-24.320831 7.861588-54.072189-12.836164-73.629041L320.520739 19.107034c-25.588499-24.189975-65.928978-23.040895-90.16189 2.510801-24.18793 25.588499-23.077698 65.928978 2.510801 90.16189l421.05809 398.317755L234.527843 914.324205c-25.33701 24.447598-26.1017 64.790121-1.660237 90.163934 12.498801 13.012002 29.203399 19.51187 45.912085 19.51187 15.935818 0 31.879815-5.947818 44.251849-17.849588l465.017557-448.186193c0.895546-0.889412 1.23291-2.120278 2.126411-3.054672 0.680861-0.639968 1.402614-1.108188 2.083474-1.789048C795.871838 549.335905 797.783564 544.702781 800.249383 540.364084L800.249383 540.364084zM800.249383 540.364084" /></svg>